<!--?xml version="1.0" encoding="utf-8"?-->
<!-- Generator: Adobe Illustrator 19.1.1, SVG Export Plug-In . SVG Version: 6.00 Build 0)  -->
<svg version="1.1" id="_x31_0" xmlns="http://www.w3.org/2000/svg" xmlns:xlink="http://www.w3.org/1999/xlink" x="0px" y="0px" viewBox="0 0 512 512" style="width: 256px; height: 256px; opacity: 1;" xml:space="preserve">
<style type="text/css">
	.st0{fill:#374149;}
</style>
<g>
	<path class="st0" d="M424.605,383.359l0.176-0.066l-26.699-19.71c-21.153-15.598-29.465-36.02-32.161-53.973
		c-0.078-0.559-0.21-1.149-0.281-1.699c-0.078-0.614-0.102-1.188-0.168-1.794c-0.199-1.898-0.379-3.789-0.461-5.566l1.367,0.493
		l0.367,0.175l0.004-0.042l0.156,0.054l0.473-6.203c1.57-19.945,6.046-50.648,11.226-56.617
		c9.11-10.602,28.114-37.458,33.453-53.164c15.078-44.29,6.754-88.895-23.949-128.942C356.148,14.762,306.753,0,274.085,0
		c-2.746,0-5.339,0.078-7.617,0.313c-15.078,1.414-22.066,4.32-27.172,6.441c-3.062,1.254-5.102,2.122-8.164,2.356
		c-1.492,0.156-2.906,0.156-4.32,0.156c-2.199,0-4.238-0.078-6.282-0.234c-2.199-0.156-4.398-0.234-6.676-0.234
		c-3.218,0-6.046,0.234-9.031,0.703c-9.031,1.57-18.137,7.695-25.441,12.645c-1.727,1.175-3.298,2.277-4.79,3.218
		c-1.179,0.786-2.121,0.863-2.828,0.863c-1.102,0-2.121-0.234-3.141-0.39c-1.648-0.394-3.218-0.629-4.871-0.629
		c-3.297,0-6.202,1.098-8.949,3.297c-4.242,3.535-5.262,7.382-5.969,9.973c-0.629,2.359-0.629,2.359-2.75,2.672
		c-6.125,0.863-26.07,5.105-28.582,22.222c-0.082,3.691-0.473,8.09-0.785,12.879c-1.18,14.293-2.516,31.961,1.414,47.117
		c-3.301,7.774-5.734,15.942-7.148,24.266c-3.375,19.082-0.157,33.844,1.335,40.91c1.649,7.461,0.234,13.43-4.242,18.691
		c-9.5,10.992-15.391,20.73-19.317,31.566c-2.828,7.617-1.726,15.785,2.985,22.461c5.418,7.695,14.606,11.855,22.457,14.055
		c0.55,5.496,1.886,10.839,3.848,15.078c-0.469,6.203,1.258,12.406,4.949,17.199c1.726,2.278,3.77,4.16,6.125,5.73
		c0,16.726,2.59,35.887,19.238,43.66c5.656,2.672,13.352,3.77,25.914,3.77c9.816,0,20.969-0.706,29.996-1.254
		c0,0,6.046-0.394,7.778-0.473c0.55,1.414,1.175,3.457,1.961,6.047c10.602,35.965,14.137,48.137,4.007,81.121
		c-2.75,8.871-7.07,21.672-12.878,37.926c-2.355,6.363-1.414,13.43,2.512,19.004c3.926,5.578,10.285,8.875,17.038,8.875
		c5.34,0,10.367-2.043,14.294-5.734c10.914-10.363,66.594-62.664,90.308-77.27c36.516-22.379,61.723-32.668,64.469-33.766
		l20.094-7.734l10.832-4.074L424.605,383.359z M201.788,182.785c0.078,0.028,0.219,0.086,0.29,0.106
		c-7.965-9.988-28.172-35.214-36.742-45.871c-1.828-2.332-3.066-3.93-3.562-4.617c25.183,13.902,49.75,25.371,55.93,28.734
		c8.168,4.477,8.09,17.828,8.953,21.754c0.473,2.512,2.906,30.234,4.555,49.238c0.039,0.387,0.285,0.598,0.43,0.902
		c0.046,0.102,0.086,0.203,0.141,0.293c1.214,1.934,4.371,1.926,5.164-0.648c6.75-22.93,18.137-45.153,28.66-54.262
		c6.988-6.09,17.242-9.649,27.359-10.364c0.094-0.003,0.184-0.015,0.278-0.019c10.129-0.664,20.094,1.531,26.469,6.93
		c20.183,17.195,15.863,50.57,14.371,59.286c-1.02,6.129-8.09,21.988-8.09,21.988s7.856,22.695,9.266,24.5
		c1.887,2.359,6.52,5.027,11.469,7.382c-0.836,18.262,1.79,45.032,19.066,68.719c0.027,0.035,0.055,0.066,0.078,0.102
		c1.344,1.836,2.766,3.66,4.293,5.453c0.598,0.707,1.278,1.394,1.906,2.094c0.984,1.094,1.934,2.196,2.992,3.266
		c3.594,3.66,7.606,7.191,12.098,10.55c-0.91,0.351-27.546,10.762-67.371,35.149c-23.714,14.527-73.972,61.25-93.367,79.546
		c-0.16,0.187-0.359,0.274-0.546,0.379c-0.168,0.098-0.352,0.175-0.547,0.226c-0.21,0.047-0.418,0.102-0.637,0.102
		c-1.648,0-3.062-1.57-2.434-3.375c3.77-10.445,9.504-26.781,13.195-38.793c11.622-38.086,7.066-54.266-3.93-91.645
		c-3.847-12.957-7.222-18.218-11.777-19.238c-0.317-0.078-1.098-0.078-2.043-0.078c-6.832,0-27.484,1.965-43.426,1.965
		c-8.008,0-14.918-0.551-18.219-2.043c-10.457-4.918-8.816-27.418-8.258-40.57l0.012-0.106h-0.008
		c0.004-0.046,0.008-0.109,0.008-0.16h-1.57c-12.25,0-9.813-8.949-9.813-8.949s1.02-4.715-1.102-6.598
		c-1.793-1.586-4.488-14.07-2.297-21.661c0.321-0.984,0.703-1.906,1.219-2.679c-0.028,0-0.066,0-0.09,0.004
		c0.027-0.047,0.039-0.118,0.07-0.164c-0.629,0.078-1.414,0.156-2.199,0.156c-7.977,0-22.586-3.422-25.89-9.84
		c0-0.008,0-0.012-0.004-0.015c-0.484-0.946-0.707-1.958-0.645-3.031c0.008-0.122,0.031-0.246,0.047-0.367
		c0.058-0.493,0.152-0.993,0.344-1.508c3.531-9.66,8.949-17.75,16.015-25.836c7.618-8.954,11.23-20.418,8.246-34.398
		c-1.649-7.774-3.848-19.238-1.176-34c0.554-3.215,1.278-6.176,2.05-9c0.234-0.75,0.41-1.477,0.684-2.242
		c12.586,13.707,48.031,33.133,63.625,40.485c3.184,1.542,5.566,2.609,6.625,2.976C201.902,182.93,201.839,182.848,201.788,182.785z
		 M329.132,94.074l1.985,0.05l0.937,0.102c0,0-0.031-0.058-0.038-0.078l0.179,0.007c0,0-2.511-4.949-7.851-11.23
		c-0.942-1.102-2.039-2.199-3.141-3.457c-0.156-0.156-0.39-0.313-0.55-0.469c-0.192-0.195-0.383-0.41-0.578-0.645
		c-0.012-0.042-0.031-0.078-0.043-0.125c1.469,0.234,3.008,0.543,4.547,1.004c0.789,0.234,1.574,0.469,2.277,0.785
		c16.18,5.653,26.465,17.039,31.649,24.266c2.121,2.825,3.379,5.024,3.926,5.969c0.055,0.168,0.114,0.278,0.168,0.391l0.027,0.156
		l-2.55-0.156v-0.078c0,0,0,0-0.078,0l-7.539-0.629l-3.222-0.242l-1.82-0.23c0,0,0.046,0.082,0.054,0.094l-0.195-0.011
		c0,0,1.809,3.062,4.554,7.378c1.726,2.672,3.93,5.734,6.203,8.797c0.293,0.406,0.554,0.786,0.813,1.161l0.226,0.414
		c-1.785,0.234-3.57,0.39-5.355,0.469h-0.786c-16.648,0-30.625-9.27-37.457-14.766c-1.492-1.176-2.672-2.278-3.457-3.062
		c3.77,0.863,7.851,1.258,12.015,1.102c1.02,0,2.039-0.156,3.062-0.238c0.234,0,0.547-0.078,0.786,0
		c0.234-0.078,0.55-0.078,0.785-0.078c0,0,0-0.078-0.078-0.078c0.078,0,0.078,0,0.078,0c-1.965-2.199-3.613-4.398-4.867-6.52
		c-0.238-0.234-0.316-0.469-0.55-0.703c-1.18-1.965-2.122-3.847-2.75-5.422c-1.152-2.617-1.621-4.305-1.641-4.371
		c0-0.008,0-0.015,0-0.023L329.132,94.074z" style="fill: rgb(75, 75, 75);"></path>
	<path class="st0" d="M238.804,329.359c0.336,0.031,0.656-0.015,0.93-0.133c0,0,0.242-0.062,0.699-0.27
		c0.496-0.191,1.129-0.445,1.942-0.777c1.574-0.75,3.738-1.871,6.094-3.164c3.523-1.934,10.469-6.004,17.394-11.489l0.996-0.82
		c1.122-0.926,2.258-1.859,3.297-2.824c1.465-1.278,2.832-2.614,4.078-3.969c1.426-1.559,2.519-2.852,3.414-4.028
		c0.402-0.465,0.742-0.965,1.054-1.43c0.152-0.222,0.293-0.434,0.477-0.691c0.254-0.422,0.504-0.82,0.746-1.199l0.524-0.848
		c0.378-0.683,0.754-1.37,1.066-2.015l0.218-0.485c0.234-0.5,0.45-0.98,0.633-1.461l0.172-0.449c0.176-0.454,0.336-0.875,0.43-1.223
		c0.164-0.386,0.238-0.762,0.305-1.09c0.039-0.183,0.07-0.367,0.141-0.578c0.289-1.062,0.367-1.878,0.374-2.273
		c0.102-0.606,0.11-0.914,0.114-0.95l-0.164-0.031c0-0.012,0.004-0.043,0.004-0.054l0,0l0.16,0.011
		c0.09-1.152-0.266-2.254-1.004-3.109c-0.707-0.825-1.695-1.332-2.789-1.438c-0.035-0.004-0.066-0.008-0.098-0.008
		c-1.137-0.086-2.242,0.282-3.102,1.035c-0.848,0.746-1.363,1.782-1.45,2.949l-0.015,0.68c-0.039,0.18-0.062,0.379-0.078,0.618
		c-0.012,0.242-0.031,0.535-0.117,0.898c-0.047,0.195-0.074,0.394-0.102,0.605c-0.024,0.157-0.043,0.325-0.031,0.344
		c-0.098,0.219-0.172,0.481-0.25,0.75c-0.047,0.179-0.094,0.355-0.172,0.55c-0.156,0.485-0.316,0.973-0.438,1.414l-0.258,0.527
		c-0.172,0.34-0.351,0.695-0.488,1.019c-0.141,0.29-0.286,0.566-0.426,0.844c-0.156,0.297-0.312,0.598-0.414,0.82
		c-0.156,0.23-0.313,0.485-0.477,0.754c-0.214,0.34-0.434,0.703-0.699,1.066c-0.766,1.148-1.683,2.394-2.714,3.679
		c-1.055,1.238-2.203,2.504-3.414,3.758c-1.211,1.254-2.481,2.492-3.766,3.683c-5.645,5.082-11.718,9.328-15.801,11.985
		c-2.254,1.382-4.203,2.574-5.614,3.347c-0.644,0.356-1.136,0.614-1.542,0.77c-0.23,0.125-0.379,0.18-0.406,0.191l-0.301,0.161
		c-1.004,0.523-1.485,1.706-1.114,2.851c0.238,0.59,0.715,1.066,1.297,1.316C238.347,329.282,238.578,329.336,238.804,329.359z" style="fill: rgb(75, 75, 75);"></path>
	<path class="st0" d="M281.186,246.942c-2.16-7.711,0.981-4.719,0.844-8.047c-0.046-1.004-0.106-2.371-0.008-2.758
		c0.13-0.461,1.321-1.614,2.192-2.454c1.328-1.293,2.82-2.874,4.086-4.762c0.176-0.226,0.352-0.414,0.527-0.644l0.062-0.055
		c0.79,1.153,1.465,2.5,2.129,4.106c0.137,0.422,0.305,0.782,0.426,1.238c0,0.016,0.011,0.027,0.007,0.043c0,0,0-0.008,0.004-0.012
		c0.004,0.008,0.004,0.012,0.004,0.012c0.024-0.039,0.031-0.066,0.055-0.106c0.023,0.07,0.05,0.11,0.078,0.183
		c5.555-10.027-2.367-10.714-4.582-13.706c-0.562-4.848-2.344-6.262-3.043-6.825l-0.879-0.714c-0.238-3.574,2.09-7.039,4.356-9.234
		c0.71-0.688,1.59-1.195,2.535-1.625c0.137-0.066,0.238-0.161,0.382-0.219c0.946-0.386,2.02-0.625,3.137-0.797
		c0.297-0.047,0.602-0.09,0.91-0.121c2.515-0.266,5.324-0.114,8.246,0.39c0.684,0.152,1.336,0.226,2.031,0.434
		c0.016,0.008,0.032,0.004,0.043,0.012l-0.008-0.004h0.012c-0.027-0.043-0.066-0.074-0.094-0.118
		c0.074,0.012,0.148,0.016,0.222,0.035c-8.558-12.778-21.121-5.328-25.117,2.188c-2.414,4.531-2.906,12.918-0.199,17.042
		c0.602,0.926,3.445,1.926,4.038,5.004c0.387,2.004-2.312,5.547-6.804,8.031c-4.438,2.454-4.266,6.07-3.586,7.813
		C276.386,249.481,281.265,247.222,281.186,246.942z" style="fill: rgb(75, 75, 75);"></path>
	<path class="st0" d="M281.671,187.582c-0.031,0.046,0.519-0.332,1.183-0.563c0.535-0.214,1.809-0.578,3.301-0.777
		c3.055-0.398,7.75-0.348,12.794,1.187c5,1.606,10.144,4.957,12.746,10.454c1.352,2.722,1.906,5.93,2.321,9.297
		c0.324,3.374,0.578,7.011,0.308,10.73l-0.324,2.789l-0.078,0.699l-0.019,0.172c0.062-0.254,0,0.027,0,0.027l-0.086,0.359
		l-0.325,1.438c-0.449,1.906-0.836,3.894-1.445,5.516c-1.024,3.378-2.422,6.855-4.059,9.976c-1.546,3.192-3.406,6.11-5.297,8.786
		c-1.867,2.695-3.863,5.094-5.781,7.242c-3.856,4.285-7.52,7.457-10.168,9.535c-2.657,2.082-4.246,3.058-4.246,3.058
		c-0.722,0.453-1,1.406-0.594,2.168c0.426,0.805,1.422,1.109,2.218,0.683c0,0,7.317-3.793,16.059-12.297
		c2.168-2.137,4.438-4.539,6.617-7.281c2.195-2.727,4.398-5.738,6.301-9.082c2.004-3.313,3.726-6.863,5.207-10.824
		c0.848-1.992,1.313-3.832,1.886-5.719l0.856-3.046l0.758-3.031c0.89-4.082,1.641-8.367,1.266-12.734
		c-0.289-4.352-1.649-8.699-3.801-12.508c-2.195-3.789-5.23-6.965-8.574-9.09c-3.336-2.153-6.867-3.321-10.094-3.95
		c-6.5-1.27-11.922-0.414-15.547,0.75c-1.859,0.602-3.156,1.183-4.242,1.859c-0.985,0.61-1.199,0.878-1.25,0.886l-0.305,0.313
		c-0.617,0.629-0.738,1.613-0.246,2.382C279.582,187.89,280.773,188.152,281.671,187.582z" style="fill: rgb(75, 75, 75);"></path>
</g>
</svg>
